<svg width="439" height="54" viewBox="0 0 439 54" fill="none" xmlns="http://www.w3.org/2000/svg">
<path d="M0.06 1.5H12.066V45H0.06V1.5ZM34.28 1.5H46.344V45H34.28V1.5ZM6.788 17.566H39.268V28.238H6.788V17.566ZM78.3876 45.928C73.245 45.928 68.721 44.9807 64.8156 43.086C60.949 41.1913 57.933 38.5427 55.7676 35.14C53.641 31.7373 52.5776 27.774 52.5776 23.25C52.5776 18.726 53.641 14.7627 55.7676 11.36C57.933 7.95733 60.949 5.30866 64.8156 3.414C68.721 1.51933 73.245 0.571998 78.3876 0.571998C83.569 0.571998 88.093 1.51933 91.9596 3.414C95.8263 5.30866 98.8423 7.95733 101.008 11.36C103.173 14.7627 104.256 18.726 104.256 23.25C104.256 27.774 103.173 31.7373 101.008 35.14C98.8423 38.5427 95.8263 41.1913 91.9596 43.086C88.093 44.9807 83.569 45.928 78.3876 45.928ZM78.3876 35.198C81.2103 35.198 83.6463 34.7147 85.6956 33.748C87.745 32.7813 89.311 31.4087 90.3936 29.63C91.515 27.8513 92.0756 25.7247 92.0756 23.25C92.0756 20.7753 91.515 18.6487 90.3936 16.87C89.311 15.0913 87.745 13.7187 85.6956 12.752C83.6463 11.7853 81.2103 11.302 78.3876 11.302C75.6036 11.302 73.187 11.7853 71.1376 12.752C69.0883 13.7187 67.503 15.0913 66.3816 16.87C65.2603 18.6487 64.6996 20.7753 64.6996 23.25C64.6996 25.7247 65.2603 27.8513 66.3816 29.63C67.503 31.4087 69.0883 32.7813 71.1376 33.748C73.187 34.7147 75.6036 35.198 78.3876 35.198ZM139.407 23.714L140.393 21.452C143.757 21.5293 146.521 22.0513 148.687 23.018C150.891 23.946 152.534 25.2607 153.617 26.962C154.699 28.6247 155.241 30.558 155.241 32.762C155.241 35.1207 154.699 37.228 153.617 39.084C152.534 40.9013 150.91 42.3513 148.745 43.434C146.618 44.478 143.95 45 140.741 45H108.609L111.973 22.67L108.609 1.5H139.581C143.602 1.5 146.734 2.44733 148.977 4.342C151.219 6.198 152.341 8.78866 152.341 12.114C152.341 13.9313 151.915 15.6713 151.065 17.334C150.214 18.9967 148.841 20.408 146.947 21.568C145.091 22.6893 142.577 23.4047 139.407 23.714ZM120.499 42.216L115.859 36.59H137.493C139.233 36.59 140.586 36.1647 141.553 35.314C142.519 34.4633 143.003 33.284 143.003 31.776C143.003 30.268 142.481 29.0693 141.437 28.18C140.393 27.252 138.846 26.788 136.797 26.788H118.933V18.552H135.173C136.565 18.552 137.725 18.146 138.653 17.334C139.619 16.4833 140.103 15.3427 140.103 13.912C140.103 12.752 139.697 11.8047 138.885 11.07C138.073 10.2967 136.913 9.91 135.405 9.91H115.917L120.499 4.284L123.457 22.67L120.499 42.216ZM184.872 45.928C179.729 45.928 175.205 44.9807 171.3 43.086C167.433 41.1913 164.417 38.5427 162.252 35.14C160.125 31.7373 159.062 27.774 159.062 23.25C159.062 18.726 160.125 14.7627 162.252 11.36C164.417 7.95733 167.433 5.30866 171.3 3.414C175.205 1.51933 179.729 0.571998 184.872 0.571998C190.053 0.571998 194.577 1.51933 198.444 3.414C202.311 5.30866 205.327 7.95733 207.492 11.36C209.657 14.7627 210.74 18.726 210.74 23.25C210.74 27.774 209.657 31.7373 207.492 35.14C205.327 38.5427 202.311 41.1913 198.444 43.086C194.577 44.9807 190.053 45.928 184.872 45.928ZM184.872 35.198C187.695 35.198 190.131 34.7147 192.18 33.748C194.229 32.7813 195.795 31.4087 196.878 29.63C197.999 27.8513 198.56 25.7247 198.56 23.25C198.56 20.7753 197.999 18.6487 196.878 16.87C195.795 15.0913 194.229 13.7187 192.18 12.752C190.131 11.7853 187.695 11.302 184.872 11.302C182.088 11.302 179.671 11.7853 177.622 12.752C175.573 13.7187 173.987 15.0913 172.866 16.87C171.745 18.6487 171.184 20.7753 171.184 23.25C171.184 25.7247 171.745 27.8513 172.866 29.63C173.987 31.4087 175.573 32.7813 177.622 33.748C179.671 34.7147 182.088 35.198 184.872 35.198ZM222.601 1.5H265.289V45H253.225V6.72L258.677 12.172H229.329L234.375 8.17C234.684 10.722 234.897 13.1773 235.013 15.536C235.129 17.856 235.187 20.06 235.187 22.148C235.187 27.716 234.684 32.2593 233.679 35.778C232.674 39.258 231.088 41.81 228.923 43.434C226.758 45.058 223.954 45.87 220.513 45.87C219.005 45.87 217.516 45.7153 216.047 45.406C214.616 45.0967 213.302 44.6327 212.103 44.014V34.038C213.804 34.6953 215.37 35.024 216.801 35.024C219.314 35.024 221.112 33.8833 222.195 31.602C223.316 29.3207 223.877 25.5893 223.877 20.408C223.877 17.8947 223.761 15.072 223.529 11.94C223.336 8.808 223.026 5.328 222.601 1.5ZM296.145 45.928C291.582 45.928 287.484 45.1547 283.849 43.608C280.253 42.0613 277.334 39.896 275.091 37.112C272.848 34.328 271.456 31.0993 270.915 27.426H282.863C283.211 29.2047 283.965 30.732 285.125 32.008C286.285 33.284 287.793 34.27 289.649 34.966C291.505 35.6233 293.632 35.952 296.029 35.952C298.929 35.952 301.404 35.4493 303.453 34.444C305.502 33.4387 307.068 31.9887 308.151 30.094C309.272 28.1993 309.833 25.918 309.833 23.25C309.833 20.582 309.272 18.3007 308.151 16.406C307.068 14.5113 305.502 13.0613 303.453 12.056C301.404 11.0507 298.929 10.548 296.029 10.548C293.632 10.548 291.505 10.896 289.649 11.592C287.832 12.2493 286.343 13.216 285.183 14.492C284.023 15.7293 283.25 17.2567 282.863 19.074H270.915C271.456 15.362 272.848 12.1333 275.091 9.388C277.334 6.604 280.253 4.43866 283.849 2.892C287.484 1.34533 291.582 0.571998 296.145 0.571998C301.249 0.571998 305.715 1.51933 309.543 3.414C313.371 5.30866 316.348 7.95733 318.475 11.36C320.64 14.7627 321.723 18.726 321.723 23.25C321.723 27.774 320.64 31.7373 318.475 35.14C316.348 38.5427 313.371 41.1913 309.543 43.086C305.715 44.9807 301.249 45.928 296.145 45.928ZM315.227 27.252H288.837V19.248H315.227V27.252ZM327.953 1.5H339.959V45H327.953V1.5ZM362.173 1.5H374.237V45H362.173V1.5ZM334.681 17.566H367.161V28.238H334.681V17.566ZM379.256 53.758V34.386H388.652L392.48 34.502H422.64L425.656 34.386H438.3V53.758H427.048V45H390.508V53.758H379.256ZM388.304 1.5H430.818V41.636H418.754V6.546L424.206 11.998H394.684L399.672 7.996C399.982 9.77467 400.156 11.4953 400.194 13.158C400.272 14.8207 400.31 16.406 400.31 17.914C400.31 22.438 399.904 26.2467 399.092 29.34C398.319 32.4333 397.14 34.7727 395.554 36.358C394.008 37.9433 392.055 38.736 389.696 38.736L384.65 34.56C386.197 32.7427 387.338 30.268 388.072 27.136C388.807 23.9653 389.174 20.06 389.174 15.42C389.174 13.2933 389.097 11.07 388.942 8.75C388.788 6.43 388.575 4.01333 388.304 1.5Z" fill="white"/>
</svg>